<svg id="Layer_1" data-name="Layer 1" xmlns="http://www.w3.org/2000/svg" viewBox="0 0 198.73 237.22"><defs><style>.cls-1{fill:#873f3e;}.cls-2{fill:#6d4a51;}.cls-3{fill:#6b6a67;}.cls-4{fill:#765f66;}.cls-5{fill:#ecb47a;}.cls-6{fill:#eab27b;}.cls-7{fill:#dd9c67;}.cls-8{fill:#e0c6b9;}.cls-9{fill:#f8d5bf;}.cls-10{fill:#f7d5be;}.cls-11{fill:#e59b90;}.cls-12{fill:#f3a195;}.cls-13{fill:#e1a06f;}.cls-14{fill:#e99c97;}.cls-15{fill:#f5af9f;}.cls-16{fill:#de8c62;}.cls-17{fill:#c36a67;}.cls-18{fill:#c1656c;}.cls-19{fill:#f5e5cc;}.cls-20{fill:#552d3d;}.cls-21{fill:#542d3c;}.cls-22{fill:#e5ac9a;}.cls-23{fill:#e4ab9e;}.cls-24{fill:#8d4a33;}.cls-25{fill:#844835;}.cls-26{fill:#843738;}.cls-27{fill:#e8aa74;}.cls-28{fill:#873b35;}.cls-29{fill:#be6c57;}.cls-30{fill:#773435;}.cls-31{fill:#72382b;}.cls-32{fill:#7c3c2f;}.cls-33{fill:#713333;}.cls-34{fill:#fcfdfc;}.cls-35{fill:#843839;}.cls-36{fill:#ebe7e3;}.cls-37{fill:#ece8e8;}.cls-38{fill:#f0b0c1;}</style></defs><path class="cls-1" d="M118,11.81c3.84,0,7.2,1.72,10.43,3.42,2.15,1.14,3.45.88,5.31-.48,9.08-6.62,19.36-9,30.47-8,10.68,1,20.56,11.25,22.32,22.72,2.18,14.22-3.11,25.16-14.67,33.18-2.27,1.58-1.66,2.48-.49,4.11A117.65,117.65,0,0,1,184,88.94c.17,1.83,2.57,2.32,2.55,4.26l0,0c-1.12,2,.77,3.18,1.2,4.76,4.89,10.35,7.66,21.34,9.47,32.57a129.72,129.72,0,0,1,1.25,28.26c-1,17.47-6.26,33.5-17,47.49-1.95,2.53-4.3,4.76-6.47,7.13-1.4,2.95-4.41,4.25-6.61,6.38a22.32,22.32,0,0,1-3.34,2.52c-1.91,1.25-3.11,2.45-1.82,5.08,1.06,2.15-.14,4.38-2.37,5.85a24.85,24.85,0,0,1-5.74,2.44c-3.64,2.75-7.28,1.38-10.91,0a15.58,15.58,0,0,1-7.07-2.42c-4.75-3-9.71-2.54-14.84-1.86a159.48,159.48,0,0,1-25.54,1.46,209.47,209.47,0,0,1-26.11-2,10.62,10.62,0,0,0-6.4,1c-3.34,1.58-6.4,3.83-10.19,4.32a14.54,14.54,0,0,1-10.77-.51c-1.11-.7-2.46-.69-3.62-1.31-3.78-2-5-4.61-3.61-8.61.76-2.1-.2-3-1.76-3.74a43.35,43.35,0,0,1-9.67-7,3.39,3.39,0,0,1-1.16-1.7c-10.17-9.85-16.6-21.87-20.26-35.43-3.92-14.51-3.82-29.18-1.88-44a138,138,0,0,1,11.2-38.36c.86-1.91.49-2.54-1.6-2.35-2.7.25-5.41.39-8.12.53-.67,0-1.61.17-1.67-.8s.84-1,1.54-1c3.2-.35,6.39-.75,9.59-1a2.75,2.75,0,0,0,2.51-1.77A159,159,0,0,1,28.49,65.32c1.42-2-.64-2-1.34-2.47C18.42,57.1,13,49.21,11.67,38.79,9.93,24.9,18.56,7.54,35.52,6.3A41.5,41.5,0,0,1,64.33,15c1.61,1.21,2.59,1.23,4.44.34Q85.35,7.35,102.62,1a14.64,14.64,0,0,1,2.62-.69c1.39-.23,3.45-.7,3.84.65.46,1.62-1.73,1.75-2.93,2.32-3.62,1.21-4,5.45-7,7.36,2.61-2,5.68-2.63,8.74-3.27l5.44-1.23c2-.59,3.94-.13,5.92-.26,1-.06,1.89.15,2.09,1.24s-.67,1.83-1.6,2.22a9.73,9.73,0,0,0-2.22.83C116.44,11,116.71,11.52,118,11.81Z"/><path class="cls-2" d="M186.57,93.2c-.7-1.51-2.83-2.16-2.55-4.26a4.55,4.55,0,0,0,4.45,2.32,32.17,32.17,0,0,1,8.36.6c.79.2,1.74.36,1.68,1.37-.09,1.39-1.31,1-2.1,1C193.12,93.91,189.85,93.54,186.57,93.2Z"/><path class="cls-3" d="M107.92,7.33c-3.06,1.71-6.57,2.36-9.59,4.32a5.09,5.09,0,0,1,2.32-3.73c.4-.24,1-.66,1-1,.07-3,2.43-3.16,4.5-3.69C103.72,6.36,103.83,6.64,107.92,7.33Z"/><path class="cls-4" d="M118,11.81a4.59,4.59,0,0,1-3.23-.9,6.65,6.65,0,0,1,4.21-1.84c1.07-.07,2.07-.65,2-1.82s-1.26-1.1-2.14-1.12c-1.81,0-3.62,0-5.43,0,2.07-1.09,4.29-.55,6.45-.55a1.87,1.87,0,0,1,2,1.45c.26,1.16-.49,1.85-1.38,2.42S117.72,9.9,118,11.81Z"/><path class="cls-2" d="M187.75,97.91c-1-1.44-2.86-2.65-1.2-4.76C186.28,94.91,187.8,96.21,187.75,97.91Z"/><path class="cls-5" d="M40.9,47.77c2.22,1.33,4,.12,4-1.8-.12-10,.49-20.28-7-28.51-2.8-3.09-6.35-4.7-11.38-4.86a23.3,23.3,0,0,1,14-3.23C49.34,10,57.49,12.75,64,19c1.57,1.5,2.63,1.24,4.09,0,3.37-2.8,7.35-4.33,12.12-5.6-1.86,2.82-3.59,5-4.6,7.67-.32.84-.64,1.69-.92,2.54-.16.49-.22,1.09.24,1.39.69.44,1.13-.14,1.45-.64a53.88,53.88,0,0,1,6.67-8.16C86.9,12.3,91,8.74,96.39,7.16c.45-.13.93-.2,1.53-.32.27,1.43-.84,1.86-1.44,2.51a21.14,21.14,0,0,0-3.21,4c-.37.7-.93,1.51-.13,2.18s1.35,0,1.92-.39c3.53-2.45,7.74-3.26,11.64-4.85a1.81,1.81,0,0,1,1.16,2.44c-1.13,1.59-2.49,3.06-2.81,5.08.79.57,1.35,0,1.72-.29,4.7-3.93,9.88-3.16,15.1-1.52a29.41,29.41,0,0,1,8.52,3.71c1.43,1,2.26.8,3.51-.48,8.85-9.18,26.68-12.37,37.69-6.65-8.23.25-12.2,5.78-15.84,11.74-4.69.61-8.77,4.09-13.89,2.77-1.9-.49-1.28,1-1,1.86,1.44,4.62,3.1,9.15,4.65,13.72a33.68,33.68,0,0,1,1.9,10,15.94,15.94,0,0,0,4.83,10.77c6.71,7.09,10.58,15.82,14.39,24.59a1.36,1.36,0,0,1,0,.89,8.36,8.36,0,0,1-4.51,1.32c-3.06-1.19-6.14-.39-9.17.07-7.8,1.2-15.6,2.46-23,5.4-1.73.29-2.74-.93-3.93-1.84-13.1-10.16-27.22-13.71-43.06-6.81A34.78,34.78,0,0,0,72.08,94c-1.25,1.23-2.61,2.56-4.57,2.71a1.44,1.44,0,0,1-1.43-1c.27-1.28-.7-1.49-1.56-1.74A139.11,139.11,0,0,0,41.8,89.71a7.21,7.21,0,0,0-3.82.6,9.29,9.29,0,0,0-6.66.32c-.95.39-2,1-3.13.64-2.23-1.31-4.66-.55-7-.62-3.57-.12-3.66-.06-1.91-3.31,4.26-7.94,8.16-16.12,14.23-22.94.92-1,.81-2.19.75-3.39A31.07,31.07,0,0,1,40.9,47.77Z"/><path class="cls-6" d="M60.22,219.34c-5.25-1.63-10.57-2.39-16-1.3-.69.13-1.54.05-2,.44-3.32,2.59-5.94.76-8.63-1.18C18.08,206.15,8.82,191,5.34,172.46a118.57,118.57,0,0,1,8-70.23,73.08,73.08,0,0,0,3-7.25c.59-1.9,1.57-2.59,3.47-2.48s4,0,6,0c.11,2.06-1.53,3.14-2.59,4.54-4.2,5.55-7.17,11.52-6.93,18.74a14.26,14.26,0,0,0,1.54,6.65c4.39,9.56,12.29,15.32,21.46,19.66A59.45,59.45,0,0,0,58,147.44c1.6.19,3.52.15,4.26,2.19-.5,1.62.11,2.81,1.23,4,3.52,3.88,6.79,8,8.3,13.13a12.27,12.27,0,0,1,.63,4.15c-.07,1.19.09,2.76-1.38,3s-.88-1.65-1.55-2.23c.3,1.39,1.32,3-.69,4.09-1.63.88-2.62,0-3.22-1.19.68,2.29-.43,4-3.24,4.28a16.69,16.69,0,0,1-8.83-1.38,40.38,40.38,0,0,1-20.64-20.65c-.37-.79-.52-1.77-2.16-2.24A35,35,0,0,0,37.62,167c1.79,2.15,3.94,4,5.1,6.66C42.9,185.43,47,196,52.82,206a40.59,40.59,0,0,0,6,9.61C59.75,216.61,60.71,217.75,60.22,219.34Z"/><path class="cls-7" d="M172.53,92.53c9.91-.22,9.78-.17,13.41,8.89a130.62,130.62,0,0,1,9.4,56.61c-1.16,20.59-7.75,39.14-23.32,53.58-3,2.79-6,5.63-9.76,7.51-1.27.65-2.59,1.26-4,.53-6.42-3.31-12.84-2.22-19.28-.07a14.52,14.52,0,0,1-1.45.34c-.28-1.46.81-2.23,1.65-3C150,207,153.72,193.9,155.38,180c.31-2.58,1.79-5,1.14-7.67.15-1.55,1.37-2.39,2.3-3.42a40.52,40.52,0,0,0,8.34-14.15c-1.68.62-1.95,1.87-2.45,2.87a42.1,42.1,0,0,1-17.78,18.29,21,21,0,0,1-11.61,2.49,2.55,2.55,0,0,1-2.37-1c-.63-1.66.39-2.84,1.22-4.05s1.8-2.13,1.77-3.65c4.15-7.83,8.85-15.1,16.6-20.08a75,75,0,0,0,12.78-10.36c1.39-1.74,3.44-2.66,5.07-4.14a40,40,0,0,0,9-11.72c3.51-7,2.49-13.75-.89-20.37a53.92,53.92,0,0,0-4.78-7.24C173.06,94.77,172.11,93.92,172.53,92.53Z"/><path class="cls-8" d="M156.79,172.2c1.06.86.83,2.12.57,3.08-2.07,7.87-2.48,16.07-5.56,23.8a50.15,50.15,0,0,1-12.27,18.63c-.72.68-1.35,1.47-2,2.21-7.4,6.78-16.8,7.09-26,7.67a177.67,177.67,0,0,1-38.48-1.47c-3.26-.5-5.71-2.19-8.29-3.87-1.51-1-3-1.94-4.56-2.91-2.19-4.49-6.21-7.85-7.83-12.69,1.31-1,2.51-.19,3.68.27A85.85,85.85,0,0,0,87.56,213c10.07,0,20-1.38,29.48-5.3a40.35,40.35,0,0,0,16.33-12.52c3.53-4.47,7.07-9,9.22-14.39a2,2,0,0,1,1.35-1.46,50.79,50.79,0,0,0,11.46-6.81A1.43,1.43,0,0,1,156.79,172.2Z"/><path class="cls-9" d="M172.53,92.53c2.93,4.53,6.79,8.54,8.41,13.79,1.82,6,2.66,12-1.11,17.64-1.23-2-3-2.25-5.18-1.9-4.81.76-9.6.14-14.34-.8-2.63-.52-4.43-2.2-6-4.22.82-1.54-.26-1.77-1.38-2.05-5.42-1.33-10.82-2.78-16.31-3.83-1.22-.23-2.66-.11-3.47-1.42.34-2.06.62-4.16,3.1-5.14-1.17.06-2.21.23-3.12-.33-.76-.47-.52-.93.09-1.33,2.78-.79,5.58-.44,8.37-.18,4.47.42,9,.58,13.43.95-6.43-1.62-13-1.28-19.49-1.26-1,0-2-.08-2.77.82-.81.36-1.16-.27-1.2-.79-.16-2.23-1.21-4.29-1.26-6.53,1.43-1.08,3.18-1.22,4.82-1.61q11.73-2.79,23.69-4.43c1.14-.16,2.38-.62,3.5.18a4.83,4.83,0,0,1,4.19-1.17c1.64.36,3.49.35,4.15,2.4Z"/><path class="cls-10" d="M17.28,122.77c-2.74-4.11-2.18-8.64-1.26-13C17.45,103,21.36,97.6,25.8,92.53a3.75,3.75,0,0,0,2.39-1.26c3.13-2.5,7.37-3,9.7-1.23,1.73-.38,3.4.12,5.07.39,6.74,1.1,13.48,2.22,20.17,3.65,1.16.25,2.41.38,3.12,1.57l1.24.58c1,3.5.22,5.31-2.48,6.17-4.8-1.07-9.57.23-14.37.24A30.77,30.77,0,0,0,41.73,104c5.35-.62,10.73-.83,16.1-1.27,2.1-.17,4.19-.56,6.25.19.07,2.48.17,5-1.13,7.26-.85,1-2.08,1.12-3.24,1.37-4.6,1-9.1,2.42-13.66,3.56-1.41.35-2.71.83-3.07,2.47-1,2.36-3.35,2.66-5.43,3.24-5.19,1.45-10.5.94-15.77.76A6.81,6.81,0,0,0,17.28,122.77Z"/><path class="cls-11" d="M157.49,47.87c.88-2.07,1.15-4-.62-5.86a2.05,2.05,0,0,1-.61-1.31c.37-8.09.78-16.19,7.62-22a14.08,14.08,0,0,1,9.2-3.27c3,0,4.69,2.51,6.2,4.74,6.69,9.92,5.36,24.81-3,34.44a36,36,0,0,1-7.49,6.48c-1.68,1.09-3.08,1.25-4.65.06a2.08,2.08,0,0,1-1.37-1.45,40.25,40.25,0,0,0-5.19-9.94C157.16,49.19,156.87,48.52,157.49,47.87Z"/><path class="cls-12" d="M40.9,47.77,34.26,61c-1.76,1.32-3.47.76-5-.28-13-8.67-19-25-10.25-40.07,4.23-7.23,14-6.55,18.79,1.17,3.49,5.59,4.06,12,4.06,18.31C41.82,42.53,39.65,45,40.9,47.77Z"/><path class="cls-13" d="M157.49,47.87a61.46,61.46,0,0,1,6.66,13.26c-.28,1.6.74,2.63,1.62,3.73a122.35,122.35,0,0,1,14.07,22.42c1.6,3.22,1.51,3.16-2.22,3.31-2.33.09-4.78-.71-7,.73-.94-1.57-3.28-.71-4.16-2.4-3-4.2-4.21-9.23-6.69-13.7-2.84-5.14-6.94-9.26-10.31-14a13,13,0,0,1-2.85-7.74c.05-5-1.51-9.62-3.1-14.24-1.31-3.79-2.59-7.58-3.89-11.37-.23-.67-.56-1.4,0-2s1.34,0,1.94.2a8.34,8.34,0,0,0,7.45-.8c1.94-1.22,4.37-1.29,6.71-1-2.31,6.23-2.53,12.73-2.54,19.26C153.21,47,154.66,48.44,157.49,47.87Z"/><path class="cls-14" d="M153.68,231.49c-1.18,3.33-4,2.81-6.21,2.07-4.73-1.58-9.26-3.74-13.93-5.69,6.17-8.46,20-9.17,26.44-1.61.8,1,0,.84-.17,2a3.51,3.51,0,0,1-2.25,3.24c-1.34.63-2.27.47-3.08-.72-2-.77-3.19-2.65-4.8-3.71C150.89,228.48,153.16,229.2,153.68,231.49Z"/><path class="cls-15" d="M38.55,229.5c-.51-2.22,1.52-5.36,4.61-7.13,4.85-2.79,16.3-1.07,20.2,2.87,1.36,1.38,1.07,2.2-.4,2.95A104.11,104.11,0,0,1,53.23,233c-2.92,1.11-6.27,2.59-8.33-1.66-.31-.64-.88-.1-1.23.16a2,2,0,0,1-2.73-.06c-.23-2.16,1.93-3.06,2.5-4.67C41.66,227.29,41.35,230.5,38.55,229.5Z"/><path class="cls-16" d="M107.86,12.7c-.38-.81-.77-1.62-1.16-2.43,2.26-1.37,4.58-2.56,8-2.19Z"/><path class="cls-17" d="M38.55,229.5c2.1-.29,2.8-2.34,4.29-3.41.59-.43,1.13-1.53,1.92-.87s-.16,1.36-.6,1.95c-1.06,1.41-2.15,2.81-3.22,4.22C40,230.93,38.88,230.72,38.55,229.5Z"/><path class="cls-18" d="M153.68,231.49c-2-1.53-3.19-4.19-6.21-4.56,2-1,3.8.07,7,3.81Z"/><path class="cls-19" d="M17.28,122.77c.09-2.33,1.63-2.21,3.34-2.11,6.22.37,12.46.88,18.57-1.07a6.57,6.57,0,0,0,3.61-2.38c1.35-1.38,3.2-1.56,4.91-2,5.7-1.48,11.41-2.87,17.8-4.37-1.33-.48-2.34-.09-2.88-.84.36-1.52,1-3,.37-4.6s1.21-1.22,1.42-2.09c-.19-.65.12-1,.72-1.14,2.75-1.21,1.47-4,2.35-5.94,3.87-1.63,6.17-5.32,9.82-7.34,13.41-7.39,26.8-8.46,40.72-1.21,4.24,2.21,7.69,5.35,11.65,7.83.57-.15.76.07.59.62a5.8,5.8,0,0,1,1.84,4.48c0,.91-.46,2,.72,2.65l0,0c1.32,1.55,3.18.27,5,1-1.84,1.16-4,2-3.57,4.72,0,.09-.66.3-1,.46-1.42,1.6.19,1.49,1,1.67,5.74,1.25,11.44,2.69,17.15,4.07,1.14.27,2.41.29,3.07,1.53,5,5,11.44,4.79,17.8,4.74a36.72,36.72,0,0,0,4.14-.56c2.3-.3,3.78.36,3.46,3-3,6.72-8.33,11.26-13.93,15.61-6.8,5.9-15.07,8-23.69,9.27-2.06.3-4.2.41-6,1.61-4.74,3.13-8,7.54-10.77,12.39a18.12,18.12,0,0,0-1.84,4.77c-1.66,6.82,2.27,11.81,9.31,12.35,3.34.25,6.73-.07,10,.69a1.16,1.16,0,0,1,.28,1.82c-4.21,5.82-7.66,12.16-12.86,17.31-6.94,6.86-15.48,10.29-24.7,12.22a77.78,77.78,0,0,1-21.18,1.82,93.33,93.33,0,0,1-29.76-6.57,14.65,14.65,0,0,0-2.3-.6c-6.11-10.3-10.6-21.1-10.27-33.38,1.62-.28,2.58.92,3.69,1.71,4.74,3.37,9.66,6,15.82,5.59a18.8,18.8,0,0,0,9-3,7.87,7.87,0,0,0,3.56-8.89c-1.48-6.6-5.09-11.92-10-16.44-.79-.73-1.87-1.23-2.17-2.41-1.32-1.74-3.34-1.52-5.17-1.81-15.27-2.47-28.61-8.31-37.75-21.52A10.06,10.06,0,0,1,17.28,122.77Z"/><path class="cls-20" d="M54.11,78.15c0-6.59,4.9-11.87,10.81-11.78,5.27.09,9.65,4.8,9.64,10.38a10.73,10.73,0,0,1-11,10.86C57.87,87.55,54.06,83.77,54.11,78.15Z"/><path class="cls-21" d="M144.16,78.08c.08,5.71-3.65,9.53-9.36,9.57A10.73,10.73,0,0,1,124.28,77c-.13-5.88,3.89-10.44,9.27-10.51C139.37,66.43,144.07,71.56,144.16,78.08Z"/><path class="cls-22" d="M130.45,59.87c-1.87.05-3.71.18-4.73-1.54a3,3,0,0,1,.62-3.63c1.34-1.35,2.94-2.41,5.09-1.8,1.72.5,3.57.54,5.19,1.41,1,.53,2.17,1.09,2,2.36A2.86,2.86,0,0,1,136,59.18C134,59.26,132.25,60.22,130.45,59.87Z"/><path class="cls-23" d="M67.63,59.87c-1.26-.17-3.06-.29-4.8-.69-2.18-.5-2.69-3-1.09-4.75,2.62-2.92,8.93-2.17,10.8,1.28C73.72,57.88,71.58,59.92,67.63,59.87Z"/><path class="cls-24" d="M130.27,96.13c-.19-.21-.39-.41-.59-.62A2.52,2.52,0,0,1,131.75,94c9.11-2.39,18.25-4.68,27.72-5,1,0,2.56-.77,2.84,1.19C151.56,91.73,140.92,94,130.27,96.13Z"/><path class="cls-25" d="M66.25,95.65c-8-1.82-16.06-3.15-24.14-4.47-1.43-.23-3,0-4.22-1.14.46-1.22,1.52-1.15,2.52-1.1A120.26,120.26,0,0,1,66.6,93.68c.65.18,1.53.36,1.38,1.27S66.84,95.43,66.25,95.65Z"/><path class="cls-26" d="M62,149.85a28.52,28.52,0,0,1,13.13,20.27c.59,3.87-1.72,7.16-5.28,8.95-7.52,3.78-14.7,3.06-21.61-1.49-2.09-1.38-4.1-2.87-6.15-4.31-4.65-5-9.26-10.1-11.57-16.74-.32-.9-1.65-2.07-.1-2.85,1.82-.92,2.16.84,2.66,2,4.25,9.57,10.89,16.82,20.51,21.17a16.26,16.26,0,0,0,7,1.49c4.62-.05,5.58-1.51,3.52-5.53,1.87.25,2,4.68,4.67,2.29,2.1-1.85-.23-3.51-1.31-5.36,2.37.57,2.25,2.87,3.44,4.29,1.22-2,1-4,.44-5.94-1.52-5.72-4.92-10.29-9.06-14.37C61.09,152.46,59.9,151.31,62,149.85Z"/><path class="cls-27" d="M135.77,149.91c2.19-2,5-1.69,7.61-2a58.22,58.22,0,0,0,22.52-8.32,46,46,0,0,1-11.45,9.49c-8.32,5.14-13.29,12.79-18.13,20.75-.15,1.79-1.59,2.75-2.65,3.9-.9,1-1.87,2.5-3.49,1.57s-1.23-2.5-.65-4c-.8,1.42-.83,3.45-3,3.67-2-1.58-2.36-3.68-1.26-6.91a32.7,32.7,0,0,1,9.54-14.25C136.11,152.63,136.55,151.49,135.77,149.91Z"/><path class="cls-28" d="M135.77,149.91c2.25,1.08,2.18,2.25.33,3.78A31.3,31.3,0,0,0,126,168.31c-.69,2.16-1.34,4.42.69,6.33,1.89.11,3.51,1.69,5.7.65.91-.43.3,1.31.88,1.83,4.14,1.44,8.14.61,11.87-1.19a39.81,39.81,0,0,0,19-18.91l1.2-2.43a1.65,1.65,0,0,1,2.23-1c1.44.56.45,1.49.16,2.21a47.08,47.08,0,0,1-10.93,16.38c-4.07,3.73-8.92,6.18-13.88,8.45-4,1.21-8,.36-11.92-.07-6.86-.75-10.36-6.81-8.19-13.44A32.61,32.61,0,0,1,135.77,149.91Z"/><path class="cls-29" d="M133.23,177.12c-.82-.05-.19-2-1.4-1.25-2.24,1.36-3.62-.14-5.18-1.23,2.06-1.19,1.74-4.3,4.55-5.39-.54,1.57-1.74,2.66-1.51,4.17a1.8,1.8,0,0,0,.8,1.52c.67.36,1.15-.12,1.55-.55,1.44-1.51,2.85-3.06,4.28-4.59,1.08,1.38-.28,2.09-.86,3C134.56,174.15,133.24,175.29,133.23,177.12Z"/><path class="cls-30" d="M154.43,116.73q-10.73-2.49-21.44-5c-.91-.22-2.43-.13-2.31-1.41s1.64-.62,2.53-.86l19.87,4.76c.58.14,1.17.29,1.74.47.8.27,2.15.22,1.92,1.4S155.22,116.51,154.43,116.73Z"/><path class="cls-31" d="M132.83,103.26c-.17-1.21.15-1.88,1.56-1.88,7.23,0,14.47,0,21.59,1.47.78.16,2.19.05,2,1.22s-1.51.64-2.32.6c-7.61-.44-15.23-.94-22.84-1.43l-.09.12Z"/><path class="cls-32" d="M65.14,102.17l-.72,1.14c-7.6.43-15.22.71-22.78,1.76-.87.12-2.33.62-2.55-.72-.19-1.14,1.22-1.11,2-1.28,7.4-1.53,14.92-1.75,22.44-1.93C64.36,101.12,65,101.32,65.14,102.17Z"/><path class="cls-33" d="M62.63,110l3.23-.44a.94.94,0,0,1,1.12.74.91.91,0,0,1-.68,1.15,13.74,13.74,0,0,1-1.43.4L42.8,117.21c-1.75-2,.42-2.07,1.35-2.33,5.47-1.5,11-2.87,16.49-4.29C61.31,110.42,62,110.2,62.63,110Z"/><path class="cls-34" d="M80.74,118.45a20.08,20.08,0,0,1-4.87-11,11.74,11.74,0,0,1,3-8.89,67.39,67.39,0,0,1,15.5-13.18c3.91-2.43,7.51-2.54,11.42,0a53.44,53.44,0,0,1,14.47,13.35c3.76,5.21,3.3,10.65-.37,15.88-.86,1.22-1.52,2.59-2.27,3.89a2.47,2.47,0,0,1-1.17,1.67c-5.7,4.12-15.32.6-17.1-6.27-.6-4,.47-7,4.59-8.6,1.78-.69,2.85-2.49,3.5-4.33a2.26,2.26,0,0,0-.42-2.53,1.8,1.8,0,0,0-2.24,0c-3.62,1.82-7.23,2.17-10.94.22a2,2,0,0,0-2.72.39,2.55,2.55,0,0,0,.23,2.85,8.43,8.43,0,0,0,4.07,3.87c3.14,1.13,4,3.3,3.68,6.32a23.15,23.15,0,0,1-.21,3c-2,5.66-9.81,8.23-15.37,6C82.29,120.5,81.08,119.91,80.74,118.45Z"/><path class="cls-35" d="M100,113.68c1.74,5.93,8.74,9,14.78,6.36a29.6,29.6,0,0,0,2.85-1.6c2.47,1.76,2.57,2.89,0,4.3-5.76,3.21-11.4,2.45-16.69-1.14-1.49-1-2.28-.95-3.75.06a16.06,16.06,0,0,1-16.53,1.44c-1.08-.48-2.27-1.2-2.2-2.6s1.15-1.76,2.27-2c6.47,4.59,13.66,3.09,17.55-3.65.82-1.51-.29-3.32.78-5C100.38,111,99.35,112.53,100,113.68Z"/><path class="cls-36" d="M65,70.28c2.19.22,3.62,1.45,3.63,3.61a3.08,3.08,0,0,1-3.43,3.33c-2.26-.1-3.39-1.65-3.47-3.77S63.07,70.5,65,70.28Z"/><path class="cls-37" d="M133.4,77.18c-2.05-.1-3.21-1-3.19-3.16,0-2.31,1.28-3.59,3.49-3.64a2.87,2.87,0,0,1,3.2,3.15C136.91,75.85,135.54,76.93,133.4,77.18Z"/><path class="cls-38" d="M100,113.68c-1-.81-.31-2.07-.79-3.19-.38,1.55.24,3.11-.88,4.31,0-.9-.08-1.81,0-2.7.22-2.64,0-4.67-3.24-5.66a8.09,8.09,0,0,1-5-5.29c-.38-1.11-.62-2.46.4-3.39a2.68,2.68,0,0,1,3.13-.23c4,2.45,7.79,1.77,11.67-.29,2-1.06,3.1.09,3.26,2.05a6.37,6.37,0,0,1-3.74,6.35C100.94,107.33,99.44,109.74,100,113.68Z"/></svg>