<svg id="Layer_1" data-name="Layer 1" xmlns="http://www.w3.org/2000/svg" viewBox="0 0 839.65 1002.25"><defs><style>.cls-1{fill:#873f3e;}.cls-2{fill:#6d4a51;}.cls-3{fill:#6b6a67;}.cls-4{fill:#765f66;}.cls-5{fill:#ecb47a;}.cls-6{fill:#eab27b;}.cls-7{fill:#dd9c67;}.cls-8{fill:#e0c6b9;}.cls-9{fill:#f8d5bf;}.cls-10{fill:#f7d5be;}.cls-11{fill:#e59b90;}.cls-12{fill:#f3a195;}.cls-13{fill:#e1a06f;}.cls-14{fill:#e99c97;}.cls-15{fill:#f5af9f;}.cls-16{fill:#de8c62;}.cls-17{fill:#c36a67;}.cls-18{fill:#c1656c;}.cls-19{fill:#f5e5cc;}.cls-20{fill:#552d3d;}.cls-21{fill:#542d3c;}.cls-22{fill:#e5ac9a;}.cls-23{fill:#e4ab9e;}.cls-24{fill:#8d4a33;}.cls-25{fill:#844835;}.cls-26{fill:#843738;}.cls-27{fill:#e8aa74;}.cls-28{fill:#873b35;}.cls-29{fill:#be6c57;}.cls-30{fill:#773435;}.cls-31{fill:#72382b;}.cls-32{fill:#7c3c2f;}.cls-33{fill:#713333;}.cls-34{fill:#fcfdfc;}.cls-35{fill:#843839;}.cls-36{fill:#ebe7e3;}.cls-37{fill:#ece8e8;}.cls-38{fill:#f0b0c1;}</style></defs><path class="cls-1" d="M498.38,49.92c16.22.07,30.43,7.23,44.08,14.44,9.06,4.79,14.55,3.7,22.41-2,38.37-28,81.83-38.22,128.74-33.78,45.14,4.28,86.88,47.52,94.31,96,9.21,60.09-13.14,106.29-62,140.2-9.58,6.65-7,10.48-2.07,17.37,21.06,29.38,39.38,60.36,53.61,93.66.72,7.72,10.89,9.79,10.78,18l-.07-.24c-4.76,8.33,3.23,13.46,5.06,20.13,20.67,43.73,32.35,90.15,40,137.59,6.37,39.52,7.67,79.48,5.3,119.4-4.38,73.81-26.45,141.54-71.92,200.64-8.24,10.71-18.17,20.12-27.33,30.13-5.9,12.49-18.64,17.95-27.93,27a93.58,93.58,0,0,1-14.12,10.67c-8.07,5.26-13.12,10.35-7.68,21.44,4.46,9.1-.59,18.51-10,24.73-7.45,4.91-15.92,7.42-24.23,10.32-15.41,11.61-30.76,5.81-46.11-.15a65.78,65.78,0,0,1-29.87-10.21c-20.07-12.53-41.05-10.75-62.72-7.88-35.79,4.74-71.91,7.25-107.89,6.19-36.82-1.08-73.8-2.71-110.33-8.39-9.78-1.52-18.28.35-27,4.48-14.1,6.65-27,16.16-43.07,18.25-15.42,4.64-30.63,4.82-45.49-2.17-4.68-3-10.38-2.94-15.29-5.53-16-8.44-21.33-19.49-15.25-36.37,3.2-8.9-.85-12.57-7.46-15.81-15.35-7.51-28.22-18.38-40.85-29.62-2.27-2-4.14-4.19-4.89-7.18-43-41.63-70.16-92.4-85.62-149.7C-3.09,690.16-2.66,628.18,5.53,565.62,13,509,29.73,455.39,52.87,403.54c3.6-8.08,2-10.73-6.76-9.93-11.42,1-22.88,1.62-34.33,2.24-2.84.15-6.8.69-7-3.37-.23-3.87,3.56-4.15,6.51-4.47,13.5-1.47,27-3.14,40.52-4.18,5.43-.41,8.3-2.8,10.58-7.47,17-34.8,35.26-68.9,58-100.36,6-8.31-2.69-8.49-5.66-10.44-36.87-24.29-59.89-57.65-65.4-101.67C41.94,105.2,78.41,31.87,150.05,26.6c45.14-3.31,85.79,9.6,121.76,36.72,6.78,5.11,10.92,5.23,18.76,1.46q70-33.7,143-60.72a61.39,61.39,0,0,1,11.09-2.92c5.84-1,14.57-2.95,16.19,2.76,1.94,6.82-7.29,7.36-12.34,9.77-15.32,5.14-17,23.07-29.47,31.11,11-8.48,24-11.1,36.93-13.8l23-5.2c8.24-2.48,16.68-.57,25-1.09,4.06-.26,8,.63,8.86,5.21.93,5-2.84,7.73-6.76,9.41-3,1.3-6.64,1.44-9.38,3.48C492,46.3,493.09,48.68,498.38,49.92Z"/><path class="cls-2" d="M788.26,393.79c-2.94-6.39-11.94-9.16-10.78-18,4.23,7.2,10.31,9.91,18.82,9.79,11.79-.17,23.7-.36,35.33,2.55,3.34.83,7.34,1.5,7.07,5.78-.38,5.84-5.51,4.31-8.87,4C816,396.78,802.12,395.21,788.26,393.79Z"/><path class="cls-3" d="M456,31c-13,7.21-27.79,10-40.55,18.24,1.36-7.19,4.21-12.33,9.8-15.74,1.72-1,4.26-2.79,4.29-4.26.27-12.83,10.28-13.33,19-15.55C438.2,26.89,438.7,28.05,456,31Z"/><path class="cls-4" d="M498.38,49.92c-4.91.92-8.83-1.08-13.65-3.8,5.75-5.16,11.28-7.31,17.79-7.78,4.54-.32,8.76-2.75,8.41-7.7s-5.31-4.66-9.05-4.75c-7.64-.17-15.29-.09-22.93-.11,8.76-4.63,18.12-2.34,27.27-2.32,4.15,0,7.59,1.82,8.55,6.13,1.1,4.91-2,7.79-5.81,10.23C504.81,42.51,497.39,41.84,498.38,49.92Z"/><path class="cls-2" d="M793.25,413.69c-4.21-6.08-12.09-11.23-5.06-20.14C787,401,793.46,406.5,793.25,413.69Z"/><path class="cls-5" d="M172.81,201.83c9.38,5.61,17.06.5,17-7.62-.51-42.24,2.1-85.69-29.37-120.44-11.83-13-26.85-19.87-48.12-20.52,20.49-11.78,39.65-15.14,59-13.68,37.24,2.81,71.64,14.28,99.33,40.72,6.64,6.33,11.09,5.23,17.3.06,14.21-11.83,31-18.27,51.2-23.64C331.18,68.61,323.88,78,319.63,89.1c-1.36,3.56-2.73,7.13-3.91,10.75-.66,2.06-.92,4.6,1,5.86,2.9,1.86,4.74-.6,6.11-2.69A228.71,228.71,0,0,1,351,68.52c16.13-16.56,33.33-31.6,56.2-38.27,1.92-.57,3.93-.83,6.47-1.35,1.16,6.05-3.54,7.87-6.08,10.62-4.9,5.31-10,10.41-13.55,16.82-1.59,2.92-3.93,6.34-.55,9.18,2.73,2.29,5.7,0,8.08-1.63C416.56,53.55,434.35,50.1,450.8,43.4c4.62,2,6.48,5.33,4.93,10.29-4.81,6.72-10.54,13-11.9,21.46,3.35,2.42,5.72.11,7.28-1.2C471,57.32,492.84,60.59,514.9,67.51c12.52,3.93,25.17,7.95,36,15.68,6.07,4.34,9.58,3.39,14.83-2C603.14,42.38,678.47,28.9,725,53.06c-34.74,1-51.51,24.44-66.91,49.61-19.8,2.57-37.07,17.26-58.7,11.7-8-2.05-5.39,4.19-4.24,7.88,6,19.48,13.1,38.63,19.62,58,4.65,13.77,7.71,27.8,8,42.41.39,18,8.43,32.84,20.41,45.49C671.54,298.07,687.89,335,704,372a5.91,5.91,0,0,1,0,3.76,35.07,35.07,0,0,1-19.05,5.57c-12.95-5-26-1.65-38.76.31-33,5.07-65.93,10.36-97.19,22.8-7.32,1.22-11.58-3.91-16.58-7.79-55.35-42.92-115-57.91-181.94-28.76-16.93,7.37-32.57,16.12-45.87,29.16-5.3,5.19-11,10.8-19.34,11.43-2.75-.29-5.14-1.12-6-4.13,1.12-5.41-3-6.29-6.6-7.32-31.46-8.92-63.57-14.44-96-18a30.7,30.7,0,0,0-16.13,2.55c-9.55-3.09-18.75-2.54-28.15,1.33-4,1.65-8.35,4.2-13.23,2.72-9.41-5.52-19.69-2.31-29.55-2.63-15.11-.48-15.47-.25-8.09-14,18-33.55,34.47-68.09,60.11-96.89,3.9-4.38,3.45-9.28,3.18-14.35C149.85,237,158.69,218.07,172.81,201.83Z"/><path class="cls-6" d="M254.42,926.71c-22.18-6.86-44.65-10.07-67.75-5.5-2.9.58-6.52.24-8.6,1.86-14,10.95-25.1,3.23-36.44-5C76.4,871,37.25,806.75,22.55,728.64c-19.19-102-7.4-201.22,33.78-296.72,4.38-10.14,9.27-20.14,12.54-30.64,2.48-8,6.64-10.92,14.68-10.47,8.47.48,17,.13,25.47.14.43,8.7-6.49,13.28-10.94,19.16-17.76,23.45-30.31,48.69-29.3,79.17.33,9.93,1.66,19.35,6.5,28.1,18.58,40.42,51.94,64.73,90.69,83.08A250.6,250.6,0,0,0,245,623c6.74.78,14.88.62,18,9.24-2.14,6.85.44,11.86,5.16,17.06,14.89,16.41,28.71,33.61,35.09,55.5,1.69,5.77,3,11.53,2.65,17.54-.28,5,.37,11.65-5.81,12.73-6.59,1.15-3.71-7-6.57-9.4,1.28,5.85,5.6,12.67-2.89,17.25-6.92,3.74-11.07.16-13.62-5,2.88,9.69-1.84,16.78-13.69,18.1A70.93,70.93,0,0,1,226,750.12c-40.25-18-68.72-47.58-87.2-87.25-1.56-3.35-2.21-7.47-9.1-9.49,6.36,20.58,16.49,37,29.21,52.22,7.58,9.06,16.65,17,21.56,28.14.76,49.73,18.15,94.25,42.68,136.53,6.74,14.64,14.92,28.32,25.52,40.6C252.43,915.17,256.5,920,254.42,926.71Z"/><path class="cls-7" d="M728.93,391c41.9-.94,41.34-.72,56.68,37.53,30.83,76.89,44.39,156.88,39.73,239.2-4.93,87-32.75,165.34-98.55,226.37-12.72,11.81-25.5,23.77-41.24,31.75-5.38,2.72-10.92,5.32-17,2.21-27.14-14-54.29-9.37-81.48-.27a62.66,62.66,0,0,1-6.13,1.41c-1.19-6.15,3.43-9.39,7-12.67,45.78-42,61.48-97.27,68.52-156.11,1.3-10.88,7.55-21,4.8-32.41.64-6.56,5.79-10.11,9.72-14.46a171.35,171.35,0,0,0,35.25-59.76c-7.1,2.62-8.25,7.91-10.34,12.1-16.88,33.74-42.21,59-75.13,77.3-15.46,8.57-31.78,11.42-49.07,10.5-3.84-.2-7.72-.53-10-4.41-2.68-7,1.61-12,5.14-17.11,3.3-4.79,7.59-9,7.47-15.45,17.55-33.06,37.4-63.77,70.12-84.84a314.65,314.65,0,0,0,54-43.77c5.86-7.35,14.55-11.23,21.41-17.46,15.73-14.28,28.67-30.55,38.22-49.53,14.81-29.4,10.49-58.1-3.78-86.07-5.55-10.87-13-20.72-20.2-30.6C731.2,400.41,727.16,396.8,728.93,391Z"/><path class="cls-8" d="M662.45,727.53c4.48,3.64,3.49,9,2.42,13-8.75,33.27-10.48,67.92-23.5,100.56-12.08,30.26-28.2,56.63-51.84,78.7-3.07,2.88-5.7,6.22-8.54,9.35-31.27,28.64-71,30-109.7,32.4-54.28,3.4-108.55,2.2-162.55-6.19-13.78-2.14-24.13-9.26-35-16.36-6.39-4.16-12.85-8.21-19.29-12.31-9.23-19-26.21-33.17-33.06-53.62,5.51-4.36,10.61-.77,15.52,1.15,42.79,16.76,87.38,25.65,133.06,25.66,42.55,0,84.64-5.84,124.54-22.42,27.75-11.53,50.7-29.62,69-52.87,14.89-18.88,29.87-38.05,38.92-60.82.66-3.21,3-4.92,5.73-6.16,17.21-7.8,33.73-16.73,48.43-28.77A6.12,6.12,0,0,1,662.45,727.53Z"/><path class="cls-9" d="M728.93,391c12.39,19.1,28.71,36.06,35.53,58.26,7.7,25.11,11.24,50.58-4.67,74.5-5.21-8.41-12.55-9.47-21.89-8-20.33,3.18-40.56.6-60.6-3.38-11.09-2.2-18.71-9.31-25.32-17.82,3.46-6.51-1.12-7.52-5.83-8.67-22.93-5.62-45.72-11.76-68.94-16.19-5.13-1-11.22-.49-14.64-6,1.42-8.72,2.59-17.59,13.1-21.74-4.93.27-9.33,1-13.2-1.4-3.2-2-2.19-3.91.41-5.62,11.72-3.32,23.54-1.85,35.35-.74,18.89,1.78,37.84,2.44,56.74,4-27.17-6.83-54.8-5.38-82.36-5.32-4.24,0-8.58-.33-11.69,3.5-3.44,1.5-4.89-1.15-5.06-3.38-.71-9.42-5.13-18.09-5.32-27.58,6-4.54,13.41-5.15,20.35-6.8Q620.48,386.79,671,379.86c4.82-.66,10-2.62,14.79.76,5.14-4.35,11-6.19,17.68-4.91,6.94,1.49,14.76,1.45,17.56,10.13Z"/><path class="cls-10" d="M73,518.72c-11.57-17.37-9.23-36.53-5.32-55,6-28.35,22.55-51.34,41.32-72.77,3.77-1,7.64-1.81,10.07-5.33,13.23-10.53,31.14-12.79,41-5.18,7.31-1.63,14.38.49,21.44,1.63,28.49,4.65,57,9.41,85.21,15.44,4.91,1.05,10.2,1.61,13.18,6.63l5.25,2.43c4,14.82.94,22.46-10.49,26.1-20.27-4.53-40.44.95-60.68,1a130,130,0,0,0-37.67,5.86c22.62-2.6,45.35-3.48,68-5.34,8.87-.72,17.7-2.36,26.42.77.31,10.51.71,21.05-4.75,30.69-3.62,4.2-8.8,4.72-13.73,5.81-19.42,4.3-38.42,10.22-57.7,15-5.95,1.49-11.43,3.49-12.95,10.45-4.43,9.94-14.15,11.23-23,13.69-21.92,6.12-44.35,3.94-66.63,3.2C84.94,513.59,78.71,514.55,73,518.72Z"/><path class="cls-11" d="M665.4,202.23c3.71-8.72,4.85-17.09-2.6-24.73-1.37-1.41-2.67-3.73-2.59-5.56,1.55-34.16,3.28-68.38,32.19-93,11.13-9.47,24.76-13.66,38.87-13.78,12.85-.12,19.83,10.57,26.19,20C785.75,127,780.11,190,744.83,230.65A150.35,150.35,0,0,1,713.17,258c-7.07,4.61-13,5.28-19.65.29-3.19-.84-4.66-3.39-5.77-6.13-5.94-14.72-12.06-29.33-21.94-42C664,207.83,662.78,205,665.4,202.23Z"/><path class="cls-12" d="M172.81,201.83q-14,28-28.07,55.92c-7.44,5.54-14.65,3.2-21.3-1.22C68.37,219.9,43,150.72,80.14,87.24c17.86-30.53,59-27.66,79.38,4.93,14.77,23.63,17.17,50.79,17.16,77.36C176.68,179.71,167.51,190,172.81,201.83Z"/><path class="cls-13" d="M665.4,202.23c11.31,17.72,21.36,36.07,28.12,56.06-1.14,6.75,3.14,11.08,6.87,15.73,23.49,29.26,42.81,61.19,59.45,94.73,6.77,13.63,6.35,13.37-9.39,14-9.82.39-20.18-3-29.44,3.1-4-6.64-13.88-3-17.56-10.13-12.54-17.75-17.83-39-28.27-57.88-12-21.73-29.33-39.15-43.59-59-7-9.72-12.18-20.66-12.05-32.7.23-21.2-6.37-40.64-13.09-60.19-5.5-16-10.92-32-16.41-48-1-2.83-2.38-5.91,0-8.36,2.67-2.73,5.66,0,8.2.84,11.06,3.51,21,3.16,31.45-3.38,8.21-5.14,18.49-5.43,28.36-4.35-9.74,26.31-10.7,53.8-10.73,81.37C647.32,198.73,653.45,204.68,665.4,202.23Z"/><path class="cls-14" d="M649.29,978.05c-5,14.09-17,11.86-26.24,8.77-19.95-6.71-39.1-15.81-58.84-24C590.29,927,648.8,924,675.9,956c3.39,4,0,3.52-.69,8.28-1,7.33-3.31,10.74-9.51,13.68-5.65,2.67-9.6,2-13-3-8.58-3.29-13.5-11.22-20.29-15.69C637.5,965.34,647.13,968.39,649.29,978.05Z"/><path class="cls-15" d="M162.88,969.67c-2.15-9.39,6.43-22.68,19.47-30.16,20.49-11.76,68.89-4.51,85.35,12.15,5.76,5.82,4.52,9.28-1.7,12.45-13.59,6.93-26.9,14.67-41.08,20.1-12.34,4.72-26.52,11-35.21-7-1.33-2.73-3.71-.42-5.22.67-4,2.88-7.76,3.08-11.53-.26-.94-9.11,8.17-12.94,10.57-19.74C176,960.33,174.71,973.88,162.88,969.67Z"/><path class="cls-16" d="M455.73,53.68q-2.46-5.15-4.93-10.28c9.58-5.79,19.37-10.81,33.89-9.26Z"/><path class="cls-17" d="M162.88,969.67c8.87-1.25,11.83-9.92,18.1-14.44,2.53-1.82,4.81-6.44,8.15-3.66,3.71,3.09-.67,5.74-2.54,8.21-4.51,6-9.08,11.91-13.63,17.86C169.05,975.67,164.28,974.8,162.88,969.67Z"/><path class="cls-18" d="M649.29,978.05c-8.55-6.47-13.44-17.68-26.22-19.28,8.28-4.13,16,.3,29.63,16.14Z"/><path class="cls-19" d="M73,518.72c.35-9.86,6.89-9.33,14.09-8.91,26.3,1.55,52.66,3.7,78.45-4.54,6.14-2,11.49-4.73,15.29-10.06,5.68-5.81,13.51-6.57,20.74-8.44,24-6.24,48.2-12.15,75.19-18.47-5.61-2-9.87-.38-12.17-3.56,1.51-6.4,4.45-12.86,1.56-19.42s5.11-5.17,6-8.82c-.82-2.76.51-4.17,3-4.82,11.6-5.1,6.21-16.9,9.93-25.11,16.36-6.9,26.08-22.48,41.5-31,56.66-31.25,113.2-35.77,172-5.14,17.93,9.34,32.49,22.61,49.24,33.11,2.39-.63,3.19.29,2.51,2.61,5.75,5,7.47,11.57,7.75,18.91.15,3.86-1.93,8.57,3,11.2l-.08-.06c5.59,6.52,13.44,1.11,21,4.38-7.78,4.91-17.08,8.58-15.06,20,.06.37-2.79,1.26-4.29,1.91-6,6.78.8,6.3,4.25,7.05,24.25,5.29,48.31,11.38,72.43,17.21,4.81,1.16,10.21,1.22,13,6.49,21.27,20.89,48.34,20.23,75.19,20,5.84-.06,11.66-1.6,17.5-2.36,9.73-1.26,16,1.53,14.63,12.9-12.45,28.39-35.19,47.57-58.87,65.94-28.7,25-63.65,33.88-100.07,39.17-8.72,1.27-17.77,1.72-25.51,6.8-20,13.24-33.85,31.85-45.53,52.37A77.39,77.39,0,0,0,522,708.15c-7,28.83,9.6,49.93,39.33,52.18,14.14,1.08,28.46-.29,42.43,2.93,3.06,2.15,3.24,4.89,1.21,7.7-17.81,24.58-32.39,51.36-54.37,73.11-29.3,29-65.36,43.47-104.34,51.66-29.37,6.17-59.5,9.7-89.48,7.66-43.14-2.93-85.48-11-125.73-27.77-3.06-1.27-6.47-1.69-9.72-2.51C195.52,829.59,176.57,784,178,732.06c6.84-1.17,10.88,3.89,15.58,7.23,20,14.26,40.83,25.48,66.82,23.62a78.88,78.88,0,0,0,38.15-12.55c13.31-8.68,18.6-21.7,15.05-37.54-6.26-27.89-21.49-50.37-42.31-69.47-3.36-3.08-7.91-5.19-9.16-10.2-5.62-7.33-14.15-6.4-21.87-7.65-64.5-10.41-120.87-35.11-159.49-90.88C77.38,529.74,74.19,524.7,73,518.72Z"/><path class="cls-20" d="M228.6,330.19c.21-27.85,20.7-50.16,45.71-49.76,22.24.35,40.73,20.28,40.7,43.86,0,26-20.38,46.13-46.26,45.87C244.48,369.91,228.42,353.92,228.6,330.19Z"/><path class="cls-21" d="M609.08,329.91c.34,24.11-15.43,40.23-39.54,40.42-23.85.19-43.93-20.08-44.47-44.9S541.51,281.3,564.26,281C588.85,280.66,608.7,302.33,609.08,329.91Z"/><path class="cls-22" d="M551.16,253c-7.89.2-15.69.75-20-6.5-3.1-5.23-1.34-11.41,2.61-15.36,5.68-5.69,12.45-10.19,21.51-7.59,7.28,2.09,15.07,2.28,21.93,6,4.18,2.23,9.17,4.59,8.35,10-.88,5.76-5.39,10.36-11.19,10.59C566.3,250.37,558.76,254.42,551.16,253Z"/><path class="cls-23" d="M285.73,253c-5.3-.73-12.91-1.24-20.26-2.92-9.24-2.11-11.4-12.48-4.61-20.06,11.05-12.34,37.72-9.19,45.64,5.39C311.48,244.55,302.43,253.17,285.73,253Z"/><path class="cls-24" d="M550.42,406.16l-2.51-2.62c1.32-4.3,5.17-5.66,8.74-6.6,38.49-10.11,77.09-19.76,117.11-21.34,4.27-.17,10.83-3.26,12,5C640.36,387.57,595.41,397,550.42,406.16Z"/><path class="cls-25" d="M279.9,404.13c-33.73-7.7-67.85-13.33-102-18.89-6-1-12.83.19-17.85-4.8,2-5.16,6.44-4.86,10.66-4.65,37.74,1.9,74.38,9.9,110.64,20,2.74.77,6.47,1.52,5.87,5.36C286.59,405.32,282.41,403.2,279.9,404.13Z"/><path class="cls-26" d="M262.1,633.14c31.1,20.38,49.86,49.06,55.46,85.64,2.51,16.35-7.29,30.24-22.31,37.78-31.79,16-62.11,12.94-91.31-6.29-8.83-5.81-17.33-12.13-26-18.22-19.64-21.26-39.14-42.66-48.9-70.71-1.33-3.82-7-8.74-.43-12.05,7.69-3.89,9.15,3.58,11.24,8.3,18,40.45,46,71,86.66,89.44a69.08,69.08,0,0,0,29.65,6.31c19.55-.21,23.61-6.38,14.89-23.39,7.9,1.07,8.32,19.78,19.75,9.68,8.87-7.83-1-14.81-5.57-22.62,10,2.4,9.54,12.09,14.54,18.1,5.17-8.57,4-16.93,1.86-25.09-6.42-24.18-20.76-43.49-38.28-60.7C258.1,644.14,253.08,639.29,262.1,633.14Z"/><path class="cls-27" d="M573.65,633.37c9.25-8.27,21.23-7.14,32.16-8.58,34.44-4.55,65.62-17.42,95.11-35.13C687.35,606.09,670,619,652.55,629.74c-35.13,21.7-56.15,54.06-76.61,87.68-.63,7.57-6.7,11.59-11.18,16.49-3.82,4.18-7.9,10.55-14.76,6.6s-5.18-10.55-2.73-16.82c-3.39,6-3.5,14.59-12.83,15.54-8.29-6.68-10-15.57-5.34-29.23a138.15,138.15,0,0,1,40.33-60.21C575.06,644.88,576.94,640.06,573.65,633.37Z"/><path class="cls-28" d="M573.65,633.37c9.48,4.56,9.21,9.5,1.38,16-20,16.56-34.87,36.86-42.85,61.75-2.92,9.12-5.67,18.67,2.92,26.75,8,.45,14.82,7.15,24.07,2.75,3.84-1.83,1.28,5.54,3.72,7.72,17.49,6.06,34.39,2.59,50.17-5,35.9-17.28,62.87-44,80.41-79.93,1.68-3.42,3.38-6.84,5.06-10.26,2-4,5.26-5.77,9.4-4.14,6.09,2.39,1.91,6.3.71,9.37-10.34,26.41-26.12,49.23-46.19,69.17-17.2,15.78-37.7,26.13-58.66,35.72-16.77,5.12-34,1.52-50.36-.29-29-3.2-43.76-28.79-34.6-56.78A137.78,137.78,0,0,1,573.65,633.37Z"/><path class="cls-29" d="M562.89,748.34c-3.46-.21-.8-8.39-5.91-5.28-9.45,5.76-15.29-.59-21.88-5.19,8.72-5,7.34-18.18,19.21-22.8-2.28,6.66-7.33,11.26-6.38,17.65.39,2.63,1,5.09,3.4,6.4,2.84,1.52,4.84-.49,6.55-2.3,6.08-6.41,12-12.92,18.07-19.4,4.57,5.83-1.19,8.84-3.62,12.58C568.54,735.81,563,740.63,562.89,748.34Z"/><path class="cls-30" d="M652.47,493.2c-30.2-7-60.42-14-90.59-21.2-3.83-.9-10.27-.52-9.76-5.92.56-5.89,6.93-2.65,10.69-3.63l84,20.11c2.47.59,5,1.2,7.36,2,3.4,1.11,9.07.89,8.13,5.9S655.82,492.25,652.47,493.2Z"/><path class="cls-31" d="M561.21,436.26c-.74-5.07.65-7.91,6.6-7.91,30.55,0,61.11,0,91.23,6.19,3.26.68,9.25.2,8.41,5.17-.79,4.64-6.39,2.71-9.82,2.52-32.17-1.87-64.33-4-96.49-6l-.39.52Z"/><path class="cls-32" d="M275.22,431.68l-3,4.82c-32.13,1.8-64.3,3-96.24,7.41-3.7.51-9.83,2.62-10.78-3-.81-4.83,5.16-4.7,8.61-5.41,31.27-6.47,63-7.39,94.81-8.16C271.9,427.24,274.4,428.09,275.22,431.68Z"/><path class="cls-33" d="M264.61,464.74c4.55-.61,9.1-1.26,13.65-1.82A4,4,0,0,1,283,466c.64,2.43-.7,4-2.87,4.83a55.15,55.15,0,0,1-6.07,1.7q-46.6,11.34-93.22,22.64c-7.42-8.55,1.77-8.74,5.67-9.82,23.13-6.36,46.43-12.13,69.67-18.14C259,466.52,261.8,465.58,264.61,464.74Z"/><path class="cls-34" d="M341.15,500.46c-11.11-13.68-19-28.6-20.6-46.68-1.31-14.63,3.7-27.31,12.54-37.55a284.12,284.12,0,0,1,65.49-55.7c16.53-10.29,31.74-10.73,48.25,0,23.71,15.34,44.69,33.7,61.13,56.41,15.92,22,14,45-1.55,67.09-3.63,5.17-6.4,10.94-9.57,16.44-.46,3.19-2.51,5.26-5,7C467.79,524.89,427.15,510,419.61,481c-2.5-16.88,2-29.51,19.43-36.33,7.49-2.94,12-10.52,14.76-18.33,1.31-3.7,1.38-7.62-1.76-10.65-3-2.89-6.47-1.71-9.47-.2-15.3,7.72-30.52,9.17-46.22.93-3.69-1.94-8.58-2.67-11.5,1.67-2.65,3.92-1.28,8.29,1,12,4.23,7,9.61,13.66,17.19,16.38,13.28,4.77,16.89,13.93,15.56,26.7-.43,4.19.08,8.47-.87,12.65-8.5,23.92-41.46,34.77-65,25.3C347.69,509.1,342.58,506.64,341.15,500.46Z"/><path class="cls-35" d="M422.34,480.31c7.36,25,36.92,37.84,62.44,26.88,4.22-1.81,8.05-4.5,12.06-6.78,10.41,7.44,10.84,12.21.2,18.15-24.33,13.58-48.19,10.37-70.51-4.8-6.29-4.27-9.64-4-15.85.26-21.86,15.06-45.52,16.94-69.85,6.09-4.57-2-9.57-5.08-9.28-11,.25-5.36,4.85-7.47,9.6-8.69,27.33,19.38,57.68,13.07,74.13-15.41,3.45-6.38-1.23-14.05,3.31-21C424.1,468.88,419.77,475.45,422.34,480.31Z"/><path class="cls-36" d="M274.62,297c9.26.93,15.3,6.1,15.36,15.25,0,8.58-5.4,14.45-14.49,14.06-9.55-.42-14.35-7-14.68-15.94S266.48,297.87,274.62,297Z"/><path class="cls-37" d="M563.63,326.07c-8.69-.38-13.57-4.35-13.49-13.33.09-9.78,5.4-15.18,14.74-15.4,8.31-.19,13.5,4.6,13.53,13.34C578.44,320.47,572.66,325,563.63,326.07Z"/><path class="cls-38" d="M422.34,480.31c-4.08-3.43-1.3-8.73-3.36-13.49-1.57,6.56,1,13.16-3.7,18.23,0-3.81-.32-7.64,0-11.42.92-11.15.08-19.71-13.7-23.9-9.81-3-17.61-11.81-21.19-22.38-1.59-4.68-2.64-10.38,1.68-14.33,3.79-3.47,9.52-3.2,13.23-.93,16.93,10.34,32.91,7.44,49.31-1.26,8.41-4.45,13.08.4,13.79,8.66a26.94,26.94,0,0,1-15.83,26.86C426.49,453.46,420.15,463.65,422.34,480.31Z"/></svg>